# xmcd CD database file generated by OrangeCD 6.2
#
# Track frame offsets:
#	150
#	20856
#	37662
#	54840
#	68774
#
# Disc length: 1217 seconds
#
# Revision: 1
# Processed by: cddbd v1.5.2PL0 Copyright (c) Steve Scherf et al.
# Submitted via: OrangeCD 6.2
#
DISCID=3504bf05
DTITLE=Midasuno - til death do us party
DYEAR=1900
DGENRE=
TTITLE0=a machine the rhythm thief
TTITLE1=the law of tooth and fang
TTITLE2=taste the virus
TTITLE3=shock horror
TTITLE4=sirens
EXTD=
EXTT0=
EXTT1=
EXTT2=
EXTT3=
EXTT4=
PLAYORDER=
